<svg xmlns="http://www.w3.org/2000/svg" xmlns:xlink="http://www.w3.org/1999/xlink" width="165" zoomAndPan="magnify" viewBox="0 0 123.75 30.000001" height="40" preserveAspectRatio="xMidYMid meet" version="1.0"><defs><g/><clipPath id="c98892dbb7"><path d="M 6 4 L 28 4 L 28 25 L 6 25 Z M 6 4 " clip-rule="nonzero"/></clipPath><clipPath id="4f163d5617"><path d="M 17.042969 4.074219 L 27.484375 14.515625 L 17.042969 24.957031 L 6.601562 14.515625 Z M 17.042969 4.074219 " clip-rule="nonzero"/></clipPath><clipPath id="978b215bd1"><path d="M 11.710938 9.179688 L 21 9.179688 L 21 18 L 11.710938 18 Z M 11.710938 9.179688 " clip-rule="nonzero"/></clipPath><clipPath id="c9a392fcfc"><path d="M 18 15 L 22.597656 15 L 22.597656 20 L 18 20 Z M 18 15 " clip-rule="nonzero"/></clipPath></defs><g fill="#000000" fill-opacity="1"><g transform="translate(29.871911, 20.903227)"><g><path d="M 7.265625 0.234375 C 6.367188 0.234375 5.539062 0.078125 4.78125 -0.234375 C 4.019531 -0.554688 3.359375 -1 2.796875 -1.5625 C 2.234375 -2.132812 1.796875 -2.8125 1.484375 -3.59375 C 1.171875 -4.375 1.015625 -5.222656 1.015625 -6.140625 C 1.015625 -7.066406 1.164062 -7.914062 1.46875 -8.6875 C 1.78125 -9.46875 2.21875 -10.144531 2.78125 -10.71875 C 3.34375 -11.289062 4 -11.734375 4.75 -12.046875 C 5.507812 -12.359375 6.335938 -12.515625 7.234375 -12.515625 C 8.171875 -12.515625 9.035156 -12.34375 9.828125 -12 C 10.628906 -11.664062 11.316406 -11.191406 11.890625 -10.578125 C 12.472656 -9.972656 12.894531 -9.269531 13.15625 -8.46875 L 11.46875 -8.46875 C 11.082031 -9.257812 10.523438 -9.875 9.796875 -10.3125 C 9.078125 -10.75 8.238281 -10.96875 7.28125 -10.96875 C 6.375 -10.96875 5.566406 -10.765625 4.859375 -10.359375 C 4.148438 -9.953125 3.59375 -9.382812 3.1875 -8.65625 C 2.789062 -7.925781 2.59375 -7.085938 2.59375 -6.140625 C 2.59375 -5.191406 2.796875 -4.351562 3.203125 -3.625 C 3.609375 -2.90625 4.164062 -2.335938 4.875 -1.921875 C 5.582031 -1.515625 6.394531 -1.3125 7.3125 -1.3125 C 8.132812 -1.3125 8.867188 -1.472656 9.515625 -1.796875 C 10.160156 -2.128906 10.6875 -2.585938 11.09375 -3.171875 C 11.5 -3.753906 11.753906 -4.429688 11.859375 -5.203125 L 6.84375 -5.203125 L 6.84375 -6.671875 L 13.515625 -6.671875 C 13.546875 -5.328125 13.300781 -4.132812 12.78125 -3.09375 C 12.257812 -2.0625 11.523438 -1.25 10.578125 -0.65625 C 9.640625 -0.0625 8.535156 0.234375 7.265625 0.234375 Z M 7.265625 0.234375 "/></g></g></g><g fill="#000000" fill-opacity="1"><g transform="translate(42.458867, 20.903227)"><g><path d="M 5.265625 0.234375 C 4.078125 0.234375 3.144531 -0.148438 2.46875 -0.921875 C 1.789062 -1.703125 1.453125 -2.742188 1.453125 -4.046875 L 1.453125 -9.109375 L 2.9375 -9.109375 L 2.9375 -4.1875 C 2.9375 -3.269531 3.160156 -2.539062 3.609375 -2 C 4.054688 -1.457031 4.675781 -1.1875 5.46875 -1.1875 C 6.320312 -1.1875 7.015625 -1.488281 7.546875 -2.09375 C 8.078125 -2.707031 8.34375 -3.515625 8.34375 -4.515625 L 8.34375 -9.109375 L 9.8125 -9.109375 L 9.8125 0 L 8.609375 0 L 8.453125 -1.328125 C 8.046875 -0.796875 7.566406 -0.398438 7.015625 -0.140625 C 6.460938 0.109375 5.878906 0.234375 5.265625 0.234375 Z M 5.265625 0.234375 "/></g></g></g><g fill="#000000" fill-opacity="1"><g transform="translate(52.008723, 20.903227)"><g><path d="M 1.640625 0 L 1.640625 -9.109375 L 3.109375 -9.109375 L 3.109375 0 Z M 1.171875 -11.765625 C 1.171875 -12.109375 1.28125 -12.382812 1.5 -12.59375 C 1.71875 -12.8125 2.007812 -12.921875 2.375 -12.921875 C 2.738281 -12.921875 3.023438 -12.8125 3.234375 -12.59375 C 3.441406 -12.382812 3.546875 -12.109375 3.546875 -11.765625 C 3.546875 -11.441406 3.441406 -11.171875 3.234375 -10.953125 C 3.023438 -10.734375 2.738281 -10.625 2.375 -10.625 C 2.007812 -10.625 1.71875 -10.734375 1.5 -10.953125 C 1.28125 -11.171875 1.171875 -11.441406 1.171875 -11.765625 Z M 1.171875 -11.765625 "/></g></g></g><g fill="#000000" fill-opacity="1"><g transform="translate(54.85238, 20.903227)"><g><path d="M 4.625 0.140625 C 3.519531 0.140625 2.65625 -0.109375 2.03125 -0.609375 C 1.414062 -1.109375 1.109375 -1.785156 1.109375 -2.640625 C 1.109375 -3.460938 1.394531 -4.117188 1.96875 -4.609375 C 2.539062 -5.109375 3.300781 -5.359375 4.25 -5.359375 L 7.96875 -5.359375 L 7.96875 -5.6875 C 7.96875 -6.40625 7.742188 -6.960938 7.296875 -7.359375 C 6.859375 -7.765625 6.253906 -7.96875 5.484375 -7.96875 C 4.890625 -7.96875 4.375 -7.835938 3.9375 -7.578125 C 3.507812 -7.316406 3.222656 -6.960938 3.078125 -6.515625 L 1.578125 -6.515625 C 1.773438 -7.390625 2.222656 -8.078125 2.921875 -8.578125 C 3.617188 -9.085938 4.46875 -9.34375 5.46875 -9.34375 C 6.257812 -9.34375 6.953125 -9.191406 7.546875 -8.890625 C 8.148438 -8.597656 8.617188 -8.179688 8.953125 -7.640625 C 9.285156 -7.109375 9.453125 -6.492188 9.453125 -5.796875 L 9.453125 0 L 8.234375 0 L 8.078125 -1.265625 C 7.242188 -0.328125 6.09375 0.140625 4.625 0.140625 Z M 2.578125 -2.65625 C 2.578125 -2.207031 2.765625 -1.847656 3.140625 -1.578125 C 3.515625 -1.304688 4.023438 -1.171875 4.671875 -1.171875 C 5.304688 -1.171875 5.867188 -1.296875 6.359375 -1.546875 C 6.847656 -1.796875 7.238281 -2.132812 7.53125 -2.5625 C 7.820312 -3 7.972656 -3.5 7.984375 -4.0625 L 4.296875 -4.0625 C 3.796875 -4.0625 3.382812 -3.929688 3.0625 -3.671875 C 2.738281 -3.421875 2.578125 -3.082031 2.578125 -2.65625 Z M 2.578125 -2.65625 "/></g></g></g><g fill="#000000" fill-opacity="1"><g transform="translate(63.840458, 20.903227)"><g/></g></g><g fill="#000000" fill-opacity="1"><g transform="translate(65.911639, 20.903227)"><g><path d="M 5.5625 0.234375 C 4.664062 0.234375 3.863281 0.0234375 3.15625 -0.390625 C 2.457031 -0.804688 1.90625 -1.375 1.5 -2.09375 C 1.101562 -2.8125 0.90625 -3.632812 0.90625 -4.5625 C 0.90625 -5.488281 1.101562 -6.304688 1.5 -7.015625 C 1.90625 -7.734375 2.457031 -8.300781 3.15625 -8.71875 C 3.863281 -9.132812 4.664062 -9.34375 5.5625 -9.34375 C 6.28125 -9.34375 6.9375 -9.207031 7.53125 -8.9375 C 8.132812 -8.675781 8.640625 -8.304688 9.046875 -7.828125 L 9.046875 -13 L 10.515625 -13 L 10.515625 0 L 9.3125 0 L 9.125 -1.40625 C 8.71875 -0.90625 8.207031 -0.503906 7.59375 -0.203125 C 6.976562 0.0859375 6.300781 0.234375 5.5625 0.234375 Z M 2.390625 -4.5625 C 2.390625 -3.90625 2.53125 -3.320312 2.8125 -2.8125 C 3.101562 -2.3125 3.5 -1.914062 4 -1.625 C 4.507812 -1.332031 5.09375 -1.1875 5.75 -1.1875 C 6.414062 -1.1875 7 -1.332031 7.5 -1.625 C 8 -1.914062 8.390625 -2.3125 8.671875 -2.8125 C 8.953125 -3.320312 9.09375 -3.90625 9.09375 -4.5625 C 9.09375 -5.21875 8.953125 -5.800781 8.671875 -6.3125 C 8.390625 -6.820312 8 -7.21875 7.5 -7.5 C 7 -7.789062 6.414062 -7.9375 5.75 -7.9375 C 5.09375 -7.9375 4.507812 -7.789062 4 -7.5 C 3.5 -7.21875 3.101562 -6.820312 2.8125 -6.3125 C 2.53125 -5.800781 2.390625 -5.21875 2.390625 -4.5625 Z M 2.390625 -4.5625 "/></g></g></g><g fill="#000000" fill-opacity="1"><g transform="translate(76.163713, 20.903227)"><g><path d="M 5.75 0.234375 C 4.800781 0.234375 3.960938 0.03125 3.234375 -0.375 C 2.503906 -0.789062 1.929688 -1.359375 1.515625 -2.078125 C 1.109375 -2.804688 0.90625 -3.632812 0.90625 -4.5625 C 0.90625 -5.5 1.109375 -6.320312 1.515625 -7.03125 C 1.929688 -7.75 2.503906 -8.3125 3.234375 -8.71875 C 3.960938 -9.132812 4.800781 -9.34375 5.75 -9.34375 C 6.695312 -9.34375 7.53125 -9.132812 8.25 -8.71875 C 8.976562 -8.3125 9.546875 -7.75 9.953125 -7.03125 C 10.367188 -6.320312 10.578125 -5.5 10.578125 -4.5625 C 10.578125 -3.632812 10.367188 -2.804688 9.953125 -2.078125 C 9.546875 -1.359375 8.976562 -0.789062 8.25 -0.375 C 7.53125 0.03125 6.695312 0.234375 5.75 0.234375 Z M 2.390625 -4.5625 C 2.390625 -3.894531 2.53125 -3.304688 2.8125 -2.796875 C 3.101562 -2.285156 3.5 -1.890625 4 -1.609375 C 4.507812 -1.328125 5.09375 -1.1875 5.75 -1.1875 C 6.394531 -1.1875 6.96875 -1.328125 7.46875 -1.609375 C 7.976562 -1.890625 8.375 -2.285156 8.65625 -2.796875 C 8.945312 -3.304688 9.09375 -3.894531 9.09375 -4.5625 C 9.09375 -5.226562 8.945312 -5.8125 8.65625 -6.3125 C 8.375 -6.820312 7.976562 -7.21875 7.46875 -7.5 C 6.96875 -7.789062 6.394531 -7.9375 5.75 -7.9375 C 5.09375 -7.9375 4.507812 -7.789062 4 -7.5 C 3.5 -7.21875 3.101562 -6.820312 2.8125 -6.3125 C 2.53125 -5.8125 2.390625 -5.226562 2.390625 -4.5625 Z M 2.390625 -4.5625 "/></g></g></g><g fill="#000000" fill-opacity="1"><g transform="translate(85.362415, 20.903227)"><g/></g></g><g fill="#000000" fill-opacity="1"><g transform="translate(87.433592, 20.903227)"><g><path d="M 5.203125 0 L 0.296875 -12.296875 L 1.953125 -12.296875 L 3.984375 -7.109375 L 5.921875 -2.234375 L 7.828125 -7.109375 L 9.890625 -12.296875 L 11.515625 -12.296875 L 6.640625 0 Z M 5.203125 0 "/></g></g></g><g fill="#000000" fill-opacity="1"><g transform="translate(96.228447, 20.903227)"><g><path d="M 4.625 0.140625 C 3.519531 0.140625 2.65625 -0.109375 2.03125 -0.609375 C 1.414062 -1.109375 1.109375 -1.785156 1.109375 -2.640625 C 1.109375 -3.460938 1.394531 -4.117188 1.96875 -4.609375 C 2.539062 -5.109375 3.300781 -5.359375 4.25 -5.359375 L 7.96875 -5.359375 L 7.96875 -5.6875 C 7.96875 -6.40625 7.742188 -6.960938 7.296875 -7.359375 C 6.859375 -7.765625 6.253906 -7.96875 5.484375 -7.96875 C 4.890625 -7.96875 4.375 -7.835938 3.9375 -7.578125 C 3.507812 -7.316406 3.222656 -6.960938 3.078125 -6.515625 L 1.578125 -6.515625 C 1.773438 -7.390625 2.222656 -8.078125 2.921875 -8.578125 C 3.617188 -9.085938 4.46875 -9.34375 5.46875 -9.34375 C 6.257812 -9.34375 6.953125 -9.191406 7.546875 -8.890625 C 8.148438 -8.597656 8.617188 -8.179688 8.953125 -7.640625 C 9.285156 -7.109375 9.453125 -6.492188 9.453125 -5.796875 L 9.453125 0 L 8.234375 0 L 8.078125 -1.265625 C 7.242188 -0.328125 6.09375 0.140625 4.625 0.140625 Z M 2.578125 -2.65625 C 2.578125 -2.207031 2.765625 -1.847656 3.140625 -1.578125 C 3.515625 -1.304688 4.023438 -1.171875 4.671875 -1.171875 C 5.304688 -1.171875 5.867188 -1.296875 6.359375 -1.546875 C 6.847656 -1.796875 7.238281 -2.132812 7.53125 -2.5625 C 7.820312 -3 7.972656 -3.5 7.984375 -4.0625 L 4.296875 -4.0625 C 3.796875 -4.0625 3.382812 -3.929688 3.0625 -3.671875 C 2.738281 -3.421875 2.578125 -3.082031 2.578125 -2.65625 Z M 2.578125 -2.65625 "/></g></g></g><g fill="#000000" fill-opacity="1"><g transform="translate(105.216526, 20.903227)"><g><path d="M 1.640625 0 L 1.640625 -13 L 3.109375 -13 L 3.109375 0 Z M 1.640625 0 "/></g></g></g><g fill="#000000" fill-opacity="1"><g transform="translate(108.060179, 20.903227)"><g><path d="M 5.578125 0.234375 C 4.671875 0.234375 3.863281 0.03125 3.15625 -0.375 C 2.457031 -0.78125 1.90625 -1.34375 1.5 -2.0625 C 1.101562 -2.789062 0.90625 -3.625 0.90625 -4.5625 C 0.90625 -5.5 1.101562 -6.328125 1.5 -7.046875 C 1.90625 -7.765625 2.460938 -8.328125 3.171875 -8.734375 C 3.878906 -9.140625 4.691406 -9.34375 5.609375 -9.34375 C 6.578125 -9.34375 7.414062 -9.113281 8.125 -8.65625 C 8.84375 -8.195312 9.390625 -7.566406 9.765625 -6.765625 C 10.148438 -5.960938 10.328125 -5.03125 10.296875 -3.96875 L 2.40625 -3.96875 C 2.519531 -3.113281 2.863281 -2.429688 3.4375 -1.921875 C 4.007812 -1.410156 4.734375 -1.15625 5.609375 -1.15625 C 6.203125 -1.15625 6.742188 -1.285156 7.234375 -1.546875 C 7.722656 -1.804688 8.109375 -2.175781 8.390625 -2.65625 L 10.0625 -2.65625 C 9.695312 -1.757812 9.113281 -1.050781 8.3125 -0.53125 C 7.519531 -0.0195312 6.609375 0.234375 5.578125 0.234375 Z M 2.421875 -5.265625 L 8.8125 -5.265625 C 8.664062 -6.097656 8.300781 -6.753906 7.71875 -7.234375 C 7.132812 -7.710938 6.429688 -7.953125 5.609375 -7.953125 C 4.765625 -7.953125 4.050781 -7.707031 3.46875 -7.21875 C 2.894531 -6.726562 2.546875 -6.078125 2.421875 -5.265625 Z M 2.421875 -5.265625 "/></g></g></g><g clip-path="url(#c98892dbb7)"><g clip-path="url(#4f163d5617)"><path fill="#000000" d="M 17.042969 4.074219 L 27.484375 14.515625 L 17.042969 24.957031 L 6.601562 14.515625 Z M 17.042969 4.074219 " fill-opacity="1" fill-rule="nonzero"/></g></g><g clip-path="url(#978b215bd1)"><path fill="#ffffff" d="M 16.039062 10.265625 C 14.246094 10.265625 12.792969 11.71875 12.792969 13.511719 C 12.792969 15.304688 14.246094 16.757812 16.039062 16.757812 C 17.832031 16.757812 19.285156 15.304688 19.285156 13.511719 C 19.285156 11.71875 17.832031 10.265625 16.039062 10.265625 Z M 11.710938 13.511719 C 11.710938 11.121094 13.648438 9.179688 16.039062 9.179688 C 18.429688 9.179688 20.367188 11.121094 20.367188 13.511719 C 20.367188 15.902344 18.429688 17.839844 16.039062 17.839844 C 13.648438 17.839844 11.710938 15.902344 11.710938 13.511719 Z M 11.710938 13.511719 " fill-opacity="1" fill-rule="evenodd"/></g><path fill="#ffffff" d="M 17.933594 13.511719 C 17.933594 12.464844 17.085938 11.617188 16.039062 11.617188 L 16.039062 10.535156 C 17.683594 10.535156 19.015625 11.867188 19.015625 13.511719 Z M 17.933594 13.511719 " fill-opacity="1" fill-rule="evenodd"/><g clip-path="url(#c9a392fcfc)"><path fill="#ffffff" d="M 19.128906 15.832031 L 22.375 19.082031 L 21.609375 19.84375 L 18.363281 16.597656 Z M 19.128906 15.832031 " fill-opacity="1" fill-rule="evenodd"/></g></svg>